{"title":"Total Recall 2012 DVDRip 400MB x264 AC3 - ViZNU [P2PDL]","uid":7787599,"size":436824849,"categoryP":"video","categoryS":"movies","magnet":"?xt=urn:btih:ba71b47482067e3a4d6200b1a1180e96e6993d59&amp;dn=Total+Recall+2012+DVDRip+400MB+x264+AC3+-+ViZNU+%5BP2PDL%5D&amp;tr=udp%3A%2F%2Ftracker.openbittorrent.com%3A80&amp;tr=udp%3A%2F%2Fopen.demonii.com%3A1337&amp;tr=udp%3A%2F%2Ftracker.coppersurfer.tk%3A6969&amp;tr=udp%3A%2F%2Fexodus.desync.com%3A6969","seeders":1,"leechers":0,"uploader":"ValidusVyto","files":-1,"time":1351940099,"description":"_________________________  Visit us at _________________________\n  &lt;a href=&quot;\nhttp://tinym.eu&quot; rel=&quot;nofollow&quot; target=&quot;_NEW&quot;&gt;\nhttp://tinym.eu&lt;/a&gt;  ____________________________ &lt;a href=&quot; http://p2pdl.com&quot; rel=&quot;nofollow&quot; target=&quot;_NEW&quot;&gt; http://p2pdl.com&lt;/a&gt;\n\n\nTotal Recall 2012 DVDRip 400MB x264 AC3 - ViZNU\n\n\t\t\t\t\t\nGenre: Action | Adventure | Sci-Fi \nPlot: A factory worker, Douglas Quaid, begins to suspect that he is a spy after visiting Rekall - a\ncompany that provides its clients with implanted fake memories of a life they would like to have led\n- goes wrong and he finds himself on the run.\nDirector: Len Wiseman\nStars: Colin Farrell, Bokeem Woodbine and Bryan Cranston.\nRated: Rated PG-13 for intense sequences of sci-fi violence and action, some sexual content, brief nudity,\nand language. &lt;a href=&quot;\nhttp://www.imdb.com/title/tt1386703/&quot; rel=&quot;nofollow&quot; target=&quot;_NEW&quot;&gt;\nhttp://www.imdb.com/title/tt1386703/&lt;/a&gt;\n\n\nGeneral\nComplete name                  : Total Recall 2012 DVDRip 400MB x264 AC3 - ViZNU [P2PDL]\nFormat                         : MPEG-4\nFormat profile                 : Base Media\nCodec ID                       : isom\nFile size                      : 402 MiB\nDuration                       : 1h 53mn\nOverall bit rate               : 496 Kbps\nSource                         : DVDR PAL DD5.1\n\nVideo\nID                             : 1\nFormat                         : AVC\nFormat/Info                    : Advanced Video Codec\nCodec ID                       : avc1\nCodec ID/Info                  : Advanced Video Coding\nDuration                       : 1h 53mn\nBit rate                       : 429 Kbps\nMaximum bit rate               : 2 523 Kbps\nWidth                          : 720 pixels\nHeight                         : 304 pixels\nDisplay aspect ratio           : 2.35:1\nFrame rate mode                : Constant\nFrame rate                     : 25.000 fps\nStream size                    : 348 MiB (86%)\nWriting library                : x264 core 125\n\nAudio\nID                             : 2\nFormat                         : AC-3\nFormat/Info                    : Audio Coding 3\nCodec ID                       : ac-3\nDuration                       : 1h 53mn\nBit rate mode                  : Constant\nBit rate                       : 64.0 Kbps\nChannel(s)                     : 2 channels\nChannel positions              : Front: L R\nSampling rate                  : 44.1 KHz\nStream size                    : 51.9 MiB (13%)\n\n\nScreens:\n\n &lt;a href=&quot;\nhttp://www.shotpix.com/images/79822495777507542461.png&quot; rel=&quot;nofollow&quot; target=&quot;_NEW&quot;&gt;\nhttp://www.shotpix.com/images/79822495777507542461.png&lt;/a&gt; &lt;a href=&quot;\nhttp://www.shotpix.com/images/91020335014454765963.png&quot; rel=&quot;nofollow&quot; target=&quot;_NEW&quot;&gt;\nhttp://www.shotpix.com/images/91020335014454765963.png&lt;/a&gt; &lt;a href=&quot;\nhttp://www.shotpix.com/images/50642412576930570795.png&quot; rel=&quot;nofollow&quot; target=&quot;_NEW&quot;&gt;\nhttp://www.shotpix.com/images/50642412576930570795.png&lt;/a&gt; &lt;a href=&quot;\nhttp://www.shotpix.com/images/85058906926281561104.png&quot; rel=&quot;nofollow&quot; target=&quot;_NEW&quot;&gt;\nhttp://www.shotpix.com/images/85058906926281561104.png&lt;/a&gt; &lt;a href=&quot;\nhttp://www.shotpix.com/images/44613036928350443223.png&quot; rel=&quot;nofollow&quot; target=&quot;_NEW&quot;&gt;\nhttp://www.shotpix.com/images/44613036928350443223.png&lt;/a&gt; &lt;a href=&quot;\nhttp://www.shotpix.com/images/00295253417826948321.png&quot; rel=&quot;nofollow&quot; target=&quot;_NEW&quot;&gt;\nhttp://www.shotpix.com/images/00295253417826948321.png&lt;/a&gt;\n\n\n----------------------------------------------------------------------------------------------------\n\n\nRecommend to you to use latest version of VLC player. Install K-Lite Codec Pack or shark007 codecs\nin case of any kind of problem in playback (For non-VLC Media Player users). Alternatively, install\nCore AVC codecs, the fastest decoder that there is coupled with Community Center Codec Pack and play\non Windows Media Player Classic. Check sample to be sure.\nEnjoy!\n\n\nGreets to: srkfan, Vitamin_X, staff members at ExtraTorrent, TPB,KAT, 1337x, PublicHD, Ahashare,\nSilverTorrent, TorrentMafia, BTScene, DigTorrent, P2PDL, and all others.\n\n\nEncoder Notes: Looking For Early Access To Anything You Can Provide DVDScr, R5, DVDR, BluRay, Direct\nAudio, Early Music Releases, Seedboxes, Dedicated Servers anything u can provide, Advance / Promo CDs/\nDVDs. If You Got anything to offer contact me at &quot;&lt;a class=&quot;__cf_email__&quot; href=&quot;/cdn-cgi/l/email-protection&quot; data-cfemail=&quot;f3838194b39b86809bdd909c9e&quot;&gt;[email&amp;#160;protected]&lt;/a&gt;&lt;script cf-hash='f9e31' type=&quot;text/javascript&quot;&gt;\n/* &lt;![CDATA[ */!function(){try{var t=&quot;currentScript&quot;in document?document.currentScript:function(){for(var t=document.getElementsByTagName(&quot;script&quot;),e=t.length;e--;)if(t[e].getAttribute(&quot;cf-hash&quot;))return t[e]}();if(t&amp;&amp;t.previousSibling){var e,r,n,i,c=t.previousSibling,a=c.getAttribute(&quot;data-cfemail&quot;);if(a){for(e=&quot;&quot;,r=parseInt(a.substr(0,2),16),n=2;a.length-n;n+=2)i=parseInt(a.substr(n,2),16)^r,e+=String.fromCharCode(i);e=document.createTextNode(e),c.parentNode.replaceChild(e,c)}}}catch(u){}}();/* ]]&gt; */&lt;/script&gt;&quot;\n\n\nFacebook Fan Page: www . facebook . com / p2pdl\n","torrent":{"xt":"urn:btih:ba71b47482067e3a4d6200b1a1180e96e6993d59","amp;dn":"Total+Recall+2012+DVDRip+400MB+x264+AC3+-+ViZNU+%5BP2PDL%5D","amp;tr":["udp%3A%2F%2Ftracker.openbittorrent.com%3A80","udp%3A%2F%2Fopen.demonii.com%3A1337","udp%3A%2F%2Ftracker.coppersurfer.tk%3A6969","udp%3A%2F%2Fexodus.desync.com%3A6969"],"infoHash":"ba71b47482067e3a4d6200b1a1180e96e6993d59","infoHashBuffer":{"type":"Buffer","data":[186,113,180,116,130,6,126,58,77,98,0,177,161,24,14,150,230,153,61,89]},"announce":[],"urlList":[]}}